<svg height='100px' width='100px'  fill="#02A9E6" xmlns="http://www.w3.org/2000/svg" xmlns:xlink="http://www.w3.org/1999/xlink" version="1.1" x="0px" y="0px" viewBox="0 0 512 512" style="enable-background:new 0 0 512 512;" xml:space="preserve"><g><path d="M428.2,253.881H309.615v-35.616h48.854c4.295,0,7.783-3.497,7.783-7.792v-47.419h30.647c4.295,0,7.783-3.497,7.783-7.792   V90.357c0-4.295-3.488-7.792-7.783-7.792h-30.647V44.249c0-4.295-3.488-7.792-7.783-7.792H153.531   c-4.295,0-7.783,3.497-7.783,7.792v38.315h-29.506c-4.295,0-7.783,3.497-7.783,7.792v64.904c0,4.295,3.488,7.792,7.783,7.792   h29.506v47.419c0,4.295,3.488,7.792,7.783,7.792h42.601v35.616H83.8c-4.295,0-7.783,3.497-7.783,7.792v206.078   c0,4.295,3.488,7.792,7.783,7.792h344.4c4.295,0,7.783-3.497,7.783-7.792V261.673C435.983,257.378,432.495,253.881,428.2,253.881z    M389.115,98.149v49.32h-22.864v-49.32H389.115z M124.025,147.469v-49.32h21.723v49.32H124.025z M161.314,155.261V90.357V52.042   h189.372v38.315v64.904v47.419h-48.854h-97.917h-42.601V155.261z M294.049,218.264v35.274h-82.351v-35.274H294.049z    M420.417,459.958H91.583V269.465h328.835V459.958z"></path><path d="M301.822,125.479c16.069,0,29.136-13.076,29.136-29.155c0-16.06-13.066-29.136-29.136-29.136   c-16.06,0-29.126,13.076-29.126,29.136C272.696,112.403,285.763,125.479,301.822,125.479z M301.822,82.774   c7.479,0,13.57,6.082,13.57,13.551c0,7.488-6.091,13.57-13.57,13.57s-13.56-6.082-13.56-13.57   C288.262,88.855,294.344,82.774,301.822,82.774z"></path><path d="M237.878,96.325c0-16.06-13.066-29.136-29.126-29.136c-16.069,0-29.136,13.076-29.136,29.136   c0,16.079,13.066,29.155,29.136,29.155C224.812,125.479,237.878,112.403,237.878,96.325z M195.182,96.325   c0-7.469,6.091-13.551,13.57-13.551s13.56,6.082,13.56,13.551c0,7.488-6.082,13.57-13.56,13.57S195.182,103.813,195.182,96.325z"></path><path d="M252.874,186.677c20.526,0,39.199-11.308,48.74-29.497c2.005-3.801,0.532-8.514-3.269-10.51s-8.524-0.513-10.51,3.288   c-6.852,13.038-20.241,21.134-34.961,21.134s-28.119-8.096-34.97-21.134c-1.986-3.801-6.671-5.284-10.51-3.288   c-3.801,2.015-5.274,6.709-3.269,10.51C213.675,175.369,232.357,186.677,252.874,186.677z"></path><path d="M126.211,427.725h259.578c4.295,0,7.783-3.497,7.783-7.792V309.491c0-4.295-3.488-7.792-7.783-7.792H126.211   c-4.295,0-7.783,3.497-7.783,7.792v110.441C118.428,424.228,121.916,427.725,126.211,427.725z M133.994,317.284h244.013v94.857   H133.994V317.284z"></path></g></svg>